<svg xmlns="http://www.w3.org/2000/svg" xmlns:xlink="http://www.w3.org/1999/xlink" width="22" height="16" viewBox="0 0 22 16">
  <defs>
    <clipPath id="clip-path">
      <rect id="長方形_177" data-name="長方形 177" width="22" height="16" transform="translate(2674 761)" fill="#fff" stroke="#707070" stroke-width="1"/>
    </clipPath>
  </defs>
  <g id="balloon-corner-01" transform="translate(-2674 -761)" clip-path="url(#clip-path)">
    <g id="合体_5" data-name="合体 5" transform="translate(1697.178 4479)" fill="#fff">
      <path d="M 1220.822387695312 -3686.5 L 997.822021484375 -3686.5 C 993.681884765625 -3686.5 989.78955078125 -3688.1123046875 986.862060546875 -3691.039794921875 C 983.9345092773438 -3693.96728515625 982.322265625 -3697.859619140625 982.322265625 -3701.999755859375 C 982.322265625 -3702.54052734375 982.3504638671875 -3703.086181640625 982.4061279296875 -3703.62158203125 L 982.4293823242188 -3703.84619140625 L 982.2764892578125 -3704.01220703125 L 978.1405639648438 -3708.500732421875 L 983.4310302734375 -3708.500732421875 L 983.7435913085938 -3708.500732421875 L 983.8804931640625 -3708.78173828125 C 985.13525390625 -3711.3564453125 987.0774536132812 -3713.533447265625 989.4970092773438 -3715.0771484375 C 991.981689453125 -3716.66259765625 994.8604125976562 -3717.50048828125 997.822021484375 -3717.50048828125 L 1220.822387695312 -3717.50048828125 C 1224.962524414062 -3717.50048828125 1228.854858398438 -3715.88818359375 1231.782348632812 -3712.96044921875 C 1234.709838867188 -3710.032958984375 1236.322143554688 -3706.14013671875 1236.322143554688 -3701.999755859375 C 1236.322143554688 -3697.859619140625 1234.709838867188 -3693.96728515625 1231.782348632812 -3691.039794921875 C 1228.854858398438 -3688.1123046875 1224.962524414062 -3686.5 1220.822387695312 -3686.5 Z" stroke="none"/>
      <path d="M 1220.822387695312 -3687 C 1224.828979492188 -3687 1228.595703125 -3688.560302734375 1231.428833007812 -3691.393310546875 C 1234.261840820312 -3694.226318359375 1235.822143554688 -3697.9931640625 1235.822143554688 -3701.999755859375 C 1235.822143554688 -3706.006591796875 1234.261840820312 -3709.773681640625 1231.428833007812 -3712.60693359375 C 1228.595825195312 -3715.440185546875 1224.828979492188 -3717.00048828125 1220.822387695312 -3717.00048828125 L 997.822021484375 -3717.00048828125 C 994.9558715820312 -3717.00048828125 992.170166015625 -3716.189697265625 989.7659912109375 -3714.65576171875 C 987.424072265625 -3713.16162109375 985.5443115234375 -3711.0546875 984.3299560546875 -3708.562744140625 L 984.05615234375 -3708.000732421875 L 983.4310302734375 -3708.000732421875 L 979.2811889648438 -3708.000732421875 L 982.6441650390625 -3704.35107421875 L 982.9500122070312 -3704.01904296875 L 982.9033813476562 -3703.570068359375 C 982.8495483398438 -3703.051513671875 982.822265625 -3702.523193359375 982.822265625 -3701.999755859375 C 982.822265625 -3697.9931640625 984.3825073242188 -3694.226318359375 987.215576171875 -3691.393310546875 C 990.0486450195312 -3688.560302734375 993.8154296875 -3687 997.822021484375 -3687 L 1220.822387695312 -3687 M 1220.822387695312 -3686 L 997.822021484375 -3686 C 988.985595703125 -3686 981.822265625 -3693.163330078125 981.822265625 -3701.999755859375 C 981.822265625 -3702.56494140625 981.8516235351562 -3703.123291015625 981.9087524414062 -3703.67333984375 L 977 -3709.000732421875 L 983.4310302734375 -3709.000732421875 C 986.0277099609375 -3714.3291015625 991.4962158203125 -3718.00048828125 997.822021484375 -3718.00048828125 L 1220.822387695312 -3718.00048828125 C 1229.658813476562 -3718.00048828125 1236.822143554688 -3710.8369140625 1236.822143554688 -3701.999755859375 C 1236.822143554688 -3693.163330078125 1229.658813476562 -3686 1220.822387695312 -3686 Z" stroke="none" fill="#a8a8a8"/>
    </g>
  </g>
</svg>
