<svg xmlns="http://www.w3.org/2000/svg" width="36" height="36" viewBox="0 0 36 36">
  <g id="ic-copy-36" transform="translate(-507 -598)">
    <path id="ic-copy-36-2" data-name="ic-copy-36" d="M16,1H4A2.006,2.006,0,0,0,2,3V17H4V3H16Zm3,4H8A2.006,2.006,0,0,0,6,7V21a2.006,2.006,0,0,0,2,2H19a2.006,2.006,0,0,0,2-2V7A2.006,2.006,0,0,0,19,5Zm0,16H8V7H19Z" transform="translate(514 604)" fill="#333"/>
    <rect id="長方形_82" data-name="長方形 82" width="36" height="36" transform="translate(507 598)" fill="none"/>
  </g>
</svg>
