<svg xmlns="http://www.w3.org/2000/svg" width="24" height="24" viewBox="0 0 24 24">
  <g id="ic-chat" transform="translate(1377 -2266)">
    <rect id="長方形_129" data-name="長方形 129" width="24" height="24" transform="translate(-1377 2266)" fill="none"/>
    <g id="chat-24px" transform="translate(-1377 2266)">
      <path id="パス_131" data-name="パス 131" d="M0,0H24V24H0Z" fill="none"/>
      <path id="パス_132" data-name="パス 132" d="M20,2H4A2,2,0,0,0,2.01,4L2,22l4-4H20a2.006,2.006,0,0,0,2-2V4A2.006,2.006,0,0,0,20,2ZM6,9H18v2H6Zm8,5H6V12h8Zm4-6H6V6H18Z" fill="#333"/>
    </g>
  </g>
</svg>
