<svg xmlns="http://www.w3.org/2000/svg" width="36" height="36" viewBox="0 0 36 36">
  <g id="ic-download" transform="translate(-451 -598)">
    <path id="ic-download-2" data-name="ic-download" d="M12,16l4-4H13V3H11v9H8ZM21,3H15V4.99h6V19.02H3V4.99H9V3H3A2.006,2.006,0,0,0,1,5V19a2.006,2.006,0,0,0,2,2H21a2.006,2.006,0,0,0,2-2V5A2.006,2.006,0,0,0,21,3ZM12,16l4-4H13V3H11v9H8ZM21,3H15V4.99h6V19.02H3V4.99H9V3H3A2.006,2.006,0,0,0,1,5V19a2.006,2.006,0,0,0,2,2H21a2.006,2.006,0,0,0,2-2V5A2.006,2.006,0,0,0,21,3Z" transform="translate(457 604)" fill="#333"/>
    <rect id="長方形_82" data-name="長方形 82" width="36" height="36" transform="translate(451 598)" fill="none"/>
  </g>
</svg>
