<svg xmlns="http://www.w3.org/2000/svg" width="24" height="24" viewBox="0 0 24 24">
  <g id="ic-GPS_compass-24" transform="translate(-259 -484)">
    <path id="ic-GPS_compass-24-2" data-name="ic-GPS_compass-24" d="M9,1.5A7.5,7.5,0,1,0,16.5,9,7.5,7.5,0,0,0,9,1.5ZM9,15a6,6,0,1,1,6-6A6.009,6.009,0,0,1,9,15ZM4.875,13.125l5.633-2.617,2.617-5.633L7.492,7.492ZM9,8.175A.825.825,0,1,1,8.175,9,.823.823,0,0,1,9,8.175Z" transform="translate(262.5 487.5)" fill="#333"/>
    <rect id="長方形_77" data-name="長方形 77" width="24" height="24" transform="translate(259 484)" fill="none"/>
  </g>
</svg>
