<svg xmlns="http://www.w3.org/2000/svg" width="24" height="24" viewBox="0 0 24 24">
  <g id="ic-gps_on-24" transform="translate(-259 -440)">
    <path id="ic-gps_on-24-2" data-name="ic-gps_on-24" d="M535,405a3,3,0,1,0,3,3A3,3,0,0,0,535,405Zm6.705,2.25a6.746,6.746,0,0,0-5.955-5.955V399.75h-1.5V401.3a6.745,6.745,0,0,0-5.955,5.955H526.75v1.5h1.545a6.745,6.745,0,0,0,5.955,5.955v1.545h1.5V414.7a6.745,6.745,0,0,0,5.955-5.955h1.545v-1.5Zm-6.705,6a5.25,5.25,0,1,1,5.25-5.25A5.247,5.247,0,0,1,535,413.25Z" transform="translate(-263.75 44.25)" fill="#333"/>
    <rect id="長方形_72" data-name="長方形 72" width="24" height="24" transform="translate(259 440)" fill="none"/>
    <rect id="長方形_76" data-name="長方形 76" width="24" height="24" transform="translate(259 440)" fill="none"/>
  </g>
</svg>
