<svg xmlns="http://www.w3.org/2000/svg" width="36" height="36" viewBox="0 0 36 36">
  <g id="ic-GPS_compass-36" transform="translate(-619 -654)">
    <path id="ic-GPS_compass-36-2" data-name="ic-GPS_compass-36" d="M16.5,1.5a15,15,0,1,0,15,15A15.005,15.005,0,0,0,16.5,1.5Zm0,27a12,12,0,1,1,12-12A12.017,12.017,0,0,1,16.5,28.5ZM8.25,24.75l11.266-5.234L24.75,8.25,13.484,13.484Zm8.25-9.9a1.65,1.65,0,1,1-1.65,1.65A1.645,1.645,0,0,1,16.5,14.85Z" transform="translate(620.5 655.5)" fill="#333"/>
    <rect id="長方形_95" data-name="長方形 95" width="36" height="36" transform="translate(619 654)" fill="none"/>
  </g>
</svg>
