<svg xmlns="http://www.w3.org/2000/svg" width="24" height="24" viewBox="0 0 24 24">
  <g id="ic-maps" transform="translate(-303 -484)">
    <path id="ic-maps-2" data-name="ic-maps" d="M15.375,2.25l-.12.022L11.25,3.825,6.75,2.25,2.52,3.675a.378.378,0,0,0-.27.36v11.34a.371.371,0,0,0,.375.375l.12-.023L6.75,14.175l4.5,1.575,4.23-1.425a.378.378,0,0,0,.27-.36V2.625A.371.371,0,0,0,15.375,2.25Zm-4.125,12-4.5-1.583V3.75l4.5,1.582Z" transform="translate(305.75 486.75)" fill="#333"/>
    <rect id="長方形_72" data-name="長方形 72" width="24" height="24" transform="translate(303 484)" fill="none"/>
  </g>
</svg>
