<svg xmlns="http://www.w3.org/2000/svg" width="24" height="24" viewBox="0 0 24 24">
  <g id="ic-poi-edit" transform="translate(-486 -440)">
    <rect id="長方形_156" data-name="長方形 156" width="24" height="24" transform="translate(486 440)" fill="none"/>
    <path id="パス_97" data-name="パス 97" d="M10.344,2A5.35,5.35,0,0,0,5,7.344c0,4.008,5.344,9.924,5.344,9.924s5.344-5.916,5.344-9.924A5.35,5.35,0,0,0,10.344,2ZM9.153,9.634h-1.1v-1.1l2.557-2.55L11.7,7.076Zm3.4-3.4-.534.534-1.1-1.1.534-.534a.29.29,0,0,1,.412,0l.687.687A.29.29,0,0,1,12.55,6.237Z" transform="translate(488 442)"/>
  </g>
</svg>
