<svg xmlns="http://www.w3.org/2000/svg" width="24" height="24" viewBox="0 0 24 24">
  <g id="ic-route-start" transform="translate(-435 -484)">
    <rect id="長方形_151" data-name="長方形 151" width="24" height="24" transform="translate(435 484)" fill="none"/>
    <path id="パス_95" data-name="パス 95" d="M42.452,2a8.57,8.57,0,0,0-2.2,16.853l2.2,2.2,2.2-2.2A8.57,8.57,0,0,0,42.452,2Zm2.833,12.962a4.285,4.285,0,0,1-2.827.891A6.542,6.542,0,0,1,37.9,13.978l1.418-1.738A5.04,5.04,0,0,0,42.5,13.749a1.675,1.675,0,0,0,1.029-.282A.9.9,0,0,0,43.9,12.7a.888.888,0,0,0-.4-.762,5.184,5.184,0,0,0-1.57-.572,6.809,6.809,0,0,1-2.721-1.151,2.717,2.717,0,0,1-.862-2.225,2.759,2.759,0,0,1,1.091-2.34,4.387,4.387,0,0,1,2.72-.823A6.547,6.547,0,0,1,44.3,5.2a5.716,5.716,0,0,1,1.859,1.037l-1.2,1.737A4.691,4.691,0,0,0,42.091,6.92a1.433,1.433,0,0,0-.937.282.921.921,0,0,0-.343.747.843.843,0,0,0,.419.74,7.7,7.7,0,0,0,1.936.648,5.438,5.438,0,0,1,2.355,1.12,2.771,2.771,0,0,1,.838,2.18A2.88,2.88,0,0,1,45.285,14.962Z" transform="translate(404.122 484)"/>
  </g>
</svg>
