<svg xmlns="http://www.w3.org/2000/svg" width="24" height="24" viewBox="0 0 24 24">
  <g id="ic-route-navi" transform="translate(-588 -440)">
    <rect id="長方形_158" data-name="長方形 158" width="24" height="24" transform="translate(588 440)" fill="none"/>
    <path id="パス_160" data-name="パス 160" d="M19.023,10.022,11.25,2.25a.86.86,0,0,0-1.218,0L2.26,10.022a.86.86,0,0,0,0,1.218l7.772,7.772a.86.86,0,0,0,1.218,0l7.772-7.772A.86.86,0,0,0,19.023,10.022Zm-6.658,2.772V10.636H8.91v2.591H7.183V9.772a.866.866,0,0,1,.864-.864h4.318V6.749l3.023,3.023Z" transform="translate(588.992 441.003)" fill="#333"/>
  </g>
</svg>
