<svg xmlns="http://www.w3.org/2000/svg" width="24" height="24" viewBox="0 0 24 24">
  <g id="ic-reset" transform="translate(-215 -440)">
    <path id="ic-reset-2" data-name="ic-reset" d="M9,4.5V6.75l3-3-3-3V3a5.989,5.989,0,0,0-5.07,9.195l1.1-1.095A4.406,4.406,0,0,1,4.5,9,4.5,4.5,0,0,1,9,4.5Zm5.07,1.3L12.975,6.9A4.493,4.493,0,0,1,9,13.5V11.25l-3,3,3,3V15a5.989,5.989,0,0,0,5.07-9.2Z" transform="translate(218 443.25)" fill="#333"/>
    <rect id="長方形_72" data-name="長方形 72" width="24" height="24" transform="translate(215 440)" fill="none"/>
  </g>
</svg>
