<svg xmlns="http://www.w3.org/2000/svg" width="36" height="36" viewBox="0 0 36 36">
  <g id="ic-route-start_36" transform="translate(-675 -598)">
    <rect id="長方形_166" data-name="長方形 166" width="36" height="36" transform="translate(675 598)" fill="none"/>
    <path id="パス_93" data-name="パス 93" d="M-1.96,41.273A13.52,13.52,0,0,0-15.479,54.792,13.511,13.511,0,0,0-5.43,67.846l3.47,3.47,3.47-3.47A13.511,13.511,0,0,0,11.559,54.792,13.521,13.521,0,0,0-1.96,41.273ZM2.506,61.71a6.757,6.757,0,0,1-4.458,1.405,10.318,10.318,0,0,1-7.186-2.956l2.235-2.74Q-4.188,59.8-1.88,59.8a2.641,2.641,0,0,0,1.622-.444,1.427,1.427,0,0,0,.588-1.2,1.4,1.4,0,0,0-.624-1.2,8.117,8.117,0,0,0-2.475-.9A10.744,10.744,0,0,1-7.06,54.234a4.283,4.283,0,0,1-1.358-3.508A4.352,4.352,0,0,1-6.7,47.036a6.919,6.919,0,0,1,4.289-1.3,10.333,10.333,0,0,1,3.365.576A9.009,9.009,0,0,1,3.888,47.95l-1.9,2.74a7.4,7.4,0,0,0-4.52-1.659,2.26,2.26,0,0,0-1.477.445,1.449,1.449,0,0,0-.541,1.178,1.329,1.329,0,0,0,.661,1.165A12.065,12.065,0,0,0-.836,52.841a8.594,8.594,0,0,1,3.715,1.766A4.37,4.37,0,0,1,4.2,58.044,4.538,4.538,0,0,1,2.506,61.71Z" transform="translate(694.479 559.727)"/>
  </g>
</svg>
