<svg xmlns="http://www.w3.org/2000/svg" width="24" height="24" viewBox="0 0 24 24">
  <g id="ic-rec-save" transform="translate(-639 -440)">
    <rect id="長方形_170" data-name="長方形 170" width="24" height="24" transform="translate(639 440)" fill="none"/>
    <g id="グループ_323" data-name="グループ 323" transform="translate(639 440)">
      <path id="パス_111" data-name="パス 111" d="M0,0H24V24H0Z" fill="none"/>
      <path id="パス_112" data-name="パス 112" d="M17,3H5A2,2,0,0,0,3,5V19a2,2,0,0,0,2,2H19a2.006,2.006,0,0,0,2-2V7ZM12,19a3,3,0,1,1,3-3A3,3,0,0,1,12,19ZM15,9H5V5H15Z"/>
    </g>
  </g>
</svg>
