<svg xmlns="http://www.w3.org/2000/svg" width="36" height="36" viewBox="0 0 36 36">
  <g id="ic-route-goal_36" transform="translate(-675 -654)">
    <rect id="長方形_163" data-name="長方形 163" width="36" height="36" transform="translate(675 654)" fill="none"/>
    <path id="パス_92" data-name="パス 92" d="M29.455,43.141a13.512,13.512,0,0,0-3.47,26.573l3.47,3.47,3.469-3.47a13.512,13.512,0,0,0-3.469-26.573Zm7.314,19.054a8.82,8.82,0,0,1-6.923,2.787,8.546,8.546,0,0,1-6.212-2.451,8.88,8.88,0,0,1,.048-12.425,8.519,8.519,0,0,1,6.176-2.5,9.139,9.139,0,0,1,6.286,2.379L34.2,52.8a7.411,7.411,0,0,0-2.08-1.358,5.574,5.574,0,0,0-2.053-.373,4.918,4.918,0,0,0-3.606,1.455,5.8,5.8,0,0,0-.06,7.642,4.541,4.541,0,0,0,3.353,1.43,6.428,6.428,0,0,0,3.243-.745V56.235h3.775Z" transform="translate(663.064 613.859)"/>
  </g>
</svg>
