<svg xmlns="http://www.w3.org/2000/svg" width="24" height="24" viewBox="0 0 24 24">
  <g id="ic-route-goal" transform="translate(-486 -484)">
    <rect id="長方形_152" data-name="長方形 152" width="24" height="24" transform="translate(486 484)" fill="none"/>
    <path id="パス_96" data-name="パス 96" d="M64.628,2a8.57,8.57,0,0,0-2.2,16.853l2.2,2.2,2.2-2.2A8.57,8.57,0,0,0,64.628,2Zm4.638,12.085a5.594,5.594,0,0,1-4.39,1.767,5.42,5.42,0,0,1-3.94-1.554,5.251,5.251,0,0,1-1.593-3.925,5.3,5.3,0,0,1,1.624-3.956,5.4,5.4,0,0,1,3.916-1.585A5.8,5.8,0,0,1,68.87,6.341L67.635,8.125a4.711,4.711,0,0,0-1.319-.862,3.54,3.54,0,0,0-1.3-.236,3.119,3.119,0,0,0-2.287.922,3.273,3.273,0,0,0-.93,2.431,3.294,3.294,0,0,0,.892,2.416,2.877,2.877,0,0,0,2.127.907,4.081,4.081,0,0,0,2.057-.472V10.305h2.393Z" transform="translate(432.947 484)"/>
  </g>
</svg>
