<svg xmlns="http://www.w3.org/2000/svg" width="36" height="36" viewBox="0 0 36 36">
  <g id="ic-transparency" transform="translate(-619 -598)">
    <path id="ic-transparency-2" data-name="ic-transparency" d="M15,21h2V19H15ZM19,9h2V7H19ZM3,5V19a2.006,2.006,0,0,0,2,2H9V19H5V5H9V3H5A2.006,2.006,0,0,0,3,5ZM19,3V5h2A2.006,2.006,0,0,0,19,3ZM11,23h2V1H11Zm8-6h2V15H19ZM15,5h2V3H15Zm4,8h2V11H19Zm0,8a2.006,2.006,0,0,0,2-2H19Z" transform="translate(649 628) rotate(180)" fill="#333"/>
    <rect id="長方形_82" data-name="長方形 82" width="36" height="36" transform="translate(619 598)" fill="none"/>
  </g>
</svg>
